<?xml version="1.0" encoding="UTF-8" standalone="no"?>
<svg
   xmlns:dc="http://purl.org/dc/elements/1.1/"
   xmlns:cc="http://creativecommons.org/ns#"
   xmlns:rdf="http://www.w3.org/1999/02/22-rdf-syntax-ns#"
   xmlns:svg="http://www.w3.org/2000/svg"
   xmlns="http://www.w3.org/2000/svg"
   xmlns:sodipodi="http://sodipodi.sourceforge.net/DTD/sodipodi-0.dtd"
   xmlns:inkscape="http://www.inkscape.org/namespaces/inkscape"
   width="188.92484"
   height="111.6778"
   viewBox="0 0 151.13987 89.342236"
   version="1.1"
   id="svg2875"
   inkscape:version="0.47 r22583"
   sodipodi:docname="5j7xogj3.svg">
  <metadata
     id="metadata2930">
    <rdf:RDF>
      <cc:Work
         rdf:about="">
        <dc:format>image/svg+xml</dc:format>
        <dc:type
           rdf:resource="http://purl.org/dc/dcmitype/StillImage" />
      </cc:Work>
    </rdf:RDF>
  </metadata>
  <defs
     id="defs2928">
    <inkscape:perspective
       sodipodi:type="inkscape:persp3d"
       inkscape:vp_x="0 : 305 : 1"
       inkscape:vp_y="0 : 1000 : 0"
       inkscape:vp_z="1000 : 305 : 1"
       inkscape:persp3d-origin="500 : 203.33333 : 1"
       id="perspective2932" />
  </defs>
  <sodipodi:namedview
     pagecolor="#ffffff"
     bordercolor="#666666"
     borderopacity="1"
     objecttolerance="10"
     gridtolerance="10"
     guidetolerance="10"
     inkscape:pageopacity="0"
     inkscape:pageshadow="2"
     inkscape:window-width="1680"
     inkscape:window-height="988"
     id="namedview2926"
     showgrid="false"
     inkscape:zoom="0.97035431"
     inkscape:cx="187.27468"
     inkscape:cy="73.247938"
     inkscape:window-x="0"
     inkscape:window-y="0"
     inkscape:window-maximized="1"
     inkscape:current-layer="svg2875" />
  <g
     id="#ffffffff"
     transform="matrix(0.2,0,0,0.2,-4.1643265,-2.8117666)">
    <path
       d="m 414.01,427.18 c 2.71,0.1 6.62,-0.29 7.73,2.92 1,6.06 -5.28,10.14 -10.67,10.31 0.95,-4.42 2.03,-8.81 2.94,-13.23 z"
       id="path2878"
       style="fill:#ffffff" />
    <path
       d="m 331.75,441.75 c 1.06,-4.72 2.18,-9.43 3.18,-14.16 2.52,0.07 5.69,-0.29 7.35,2.07 1.95,2.83 0.16,6.54 -1.97,8.72 -2.2,2.39 -5.53,2.87 -8.56,3.37 z"
       id="path2880"
       style="fill:#ffffff" />
    <path
       d="m 592.94,442.59 c 2.22,-3.95 4.32,-7.97 6.35,-12.02 0.47,4.09 1.03,8.18 1.61,12.26 -2.66,-0.06 -5.31,-0.14 -7.96,-0.24 z"
       id="path2882"
       style="fill:#ffffff" />
    <path
       d="m 453.66,442.6 c 2.2,-3.95 4.31,-7.95 6.41,-11.96 0.41,4.08 0.95,8.15 1.58,12.2 -2.67,-0.07 -5.33,-0.14 -7.99,-0.24 z"
       id="path2884"
       style="fill:#ffffff" />
  </g>
  <g
     id="#f89b34ff"
     transform="matrix(0.2,0,0,0.2,-4.1643265,-2.8117666)">
    <path
       d="m 443.49,14.88 c 17.69,-2 36.24,-0.59 52.56,6.94 15.63,7.15 28.05,21.39 32.06,38.21 4.35,17.98 1.49,37.24 -6.22,53.92 -8.93,19.55 -25.68,34.83 -44.92,44.01 -34,15.88 -74.64,14.81 -108.81,-0.03 -2.35,-0.95 -4.91,-3.13 -4.14,-5.97 1.8,-8.16 5.45,-15.77 8.43,-23.54 1.42,-2.83 2.41,-6.57 5.51,-7.96 3.81,-0.34 7.35,1.6 10.88,2.73 13.27,5.08 28.13,7.51 42.07,3.82 14.36,-3.7 26.48,-15.01 31.06,-29.12 3.4,-10 3.94,-21.85 -1.87,-31.08 -4.74,-7.59 -13.37,-11.96 -22.09,-13 -14.93,-2.04 -29.6,3.12 -43.05,9.11 -4.04,1.65 -7.77,4.04 -11.94,5.35 -2.65,-0.77 -2.32,-3.99 -1.94,-6.12 1.4,-7.84 3.48,-15.57 6.3,-23.02 1.31,-3.31 2.78,-6.81 5.75,-8.98 5.05,-3.79 11.09,-5.9 17,-7.92 10.84,-3.54 22.05,-5.95 33.36,-7.35 z"
       id="path2887"
       style="fill:#f89b34" />
    <path
       d="m 82.49,290.85 c 16.87,-2.37 34.27,0.19 49.98,6.68 1.59,0.72 3.44,1.55 4.03,3.37 -0.24,3.74 -1.88,7.19 -3.15,10.67 -1.52,3.7 -2.72,7.59 -4.87,11 -0.68,1.21 -2.12,2.1 -3.51,1.49 -4.41,-1.02 -8.5,-3.09 -12.9,-4.12 -9.91,-2.55 -21.1,-2.48 -30.08,2.93 -11.09,6.43 -17.56,20.25 -14.8,32.85 1.77,8.05 9.31,13.72 17.28,14.64 13.36,1.96 25.92,-4.16 37.67,-9.62 1.4,-1.2 2.88,0.87 2.51,2.2 -0.32,4.87 -1.84,9.56 -3.23,14.22 -1.35,3.94 -2.69,8.46 -6.56,10.67 -7.05,4.19 -15.18,6.11 -23.1,7.93 -15.15,3.36 -31.52,3.65 -46.01,-2.5 -11.35,-4.79 -20.48,-14.83 -23.44,-26.88 -3.77,-15.24 -0.14,-31.77 8.2,-44.9 11.33,-17.63 31.51,-28.1 51.98,-30.63 z"
       id="path2889"
       style="fill:#f89b34" />
    <path
       d="m 428.49,290.8 c 8.74,-1.38 17.63,-1.57 26.46,-1.19 2.84,0.15 7.11,0.65 7.2,4.37 -0.27,6.35 -1.71,12.82 -4.66,18.49 -1.2,2.44 -4.23,1.82 -6.43,1.73 -5.95,-0.57 -12.39,-1.89 -17.99,0.93 -3.16,1.6 -5.69,5.98 -3.38,9.23 6.05,8.8 15.62,14.99 19.9,25.05 3.81,8.38 2.16,18.23 -1.99,26.17 -6.31,11.8 -18.2,20.21 -31.21,22.99 -9.7,2.09 -19.75,1.58 -29.54,0.48 -5.39,-0.82 -10.97,-1.53 -15.89,-4.01 -2.16,-0.78 -1.51,-3.31 -1.1,-5.01 1.4,-5.09 3.22,-10.07 5.18,-14.96 0.7,-1.55 1.68,-3.92 3.82,-3.44 8.13,1.28 16.29,4.85 24.62,3.01 3.59,-0.56 6.83,-5.11 4.23,-8.34 -6,-8.65 -14.63,-15.57 -18.54,-25.6 -5.77,-13.37 -0.02,-29.64 11.11,-38.39 8.05,-6.47 18.12,-9.86 28.21,-11.51 z"
       id="path2891"
       style="fill:#f89b34" />
    <path
       d="m 189.45,291.64 c 14.62,-1.91 30.16,-2.15 43.95,3.82 10.23,4.36 18.31,13.63 20.53,24.62 2.61,13.24 -0.23,27.02 -5.6,39.22 -6.36,14.34 -18.27,26.01 -32.57,32.39 -15.21,6.74 -32.44,8.29 -48.8,5.8 -11.32,-1.76 -22.7,-6.25 -30.54,-14.89 -5.98,-6.33 -9.44,-14.84 -10.02,-23.49 -1.37,-17.92 6.06,-36.26 19.46,-48.23 11.97,-10.92 27.68,-17.01 43.59,-19.24 m 6.04,25.07 c -6.22,1.28 -11.73,5.17 -15.4,10.3 -4.27,6.26 -6.11,13.79 -7.44,21.14 -0.69,5.69 -1.27,12.09 2.05,17.12 2.84,4.3 8.44,5.53 13.28,5.19 6.76,-0.32 13.14,-3.87 17.29,-9.16 5.9,-7.45 8.37,-17.03 9.19,-26.35 0.3,-5.3 -0.11,-11.38 -4.11,-15.33 -3.92,-3.72 -9.84,-3.84 -14.86,-2.91 z"
       id="path2893"
       style="fill:#f89b34" />
    <path
       d="m 336.21,291.11 c 8.72,-1.36 18.29,-1.09 25.97,3.74 7.63,4.74 12.26,13.29 13.31,22.08 0.75,6.5 0.31,13.06 -0.45,19.54 -1.92,14.81 -4.87,29.46 -8.3,43.99 -1.01,3.83 -1.07,8.32 -3.89,11.38 -3.41,2.43 -7.9,2 -11.87,2.33 -8.34,-0.06 -16.68,0.34 -25.02,0.41 -2.01,0.24 -3.95,-1.45 -3.76,-3.5 0.11,-4.25 1.27,-8.37 2.11,-12.52 2.71,-12.4 4.99,-24.89 7.09,-37.41 0.91,-6.52 1.85,-13.34 -0.04,-19.77 -1.09,-3.69 -4.41,-6.57 -8.27,-6.91 -5.76,-0.53 -11.52,0.99 -16.89,2.93 -4.01,22.89 -8.12,45.83 -12.04,68.76 -0.66,2.57 -1.53,5.77 -4.38,6.67 -3.15,1.07 -6.55,0.82 -9.82,0.9 -7.65,-0.09 -15.29,0.76 -22.95,0.44 -2.19,-0.2 -4.8,-0.24 -6.27,-2.14 -0.83,-2.56 0.02,-5.23 0.41,-7.77 2.25,-10.44 3.68,-21.03 5.71,-31.51 2.6,-13.6 5.21,-27.19 7.62,-40.83 0.68,-3.52 1.31,-7.16 3.06,-10.34 1.23,-2.35 3.84,-3.65 6.44,-3.69 11.63,-0.07 23.42,1.89 34.95,-0.47 9.16,-1.81 18.03,-4.91 27.28,-6.31 z"
       id="path2895"
       style="fill:#f89b34" />
    <path
       d="m 662.81,291.88 c 8.22,-1.43 17.53,-1.28 24.58,3.77 6.23,4.53 8.94,12.31 9.75,19.7 8.84,-10.27 19.39,-20.17 32.89,-23.6 9.81,-2.48 21.58,-1.23 28.89,6.4 6.11,6.27 7.46,15.54 6.89,23.94 -1.06,17 -5.69,33.49 -9.79,49.95 6.61,-2.22 12.66,-5.84 19.34,-7.84 1.26,4.13 1.48,8.56 0.73,12.81 -0.73,3.85 -4.73,5.54 -7.83,7.19 -13.65,6.61 -27.83,12.46 -42.73,15.57 -3.91,0.55 -8.76,1.78 -11.95,-1.3 -3.24,-3.78 -2.09,-9.21 -1.06,-13.62 4.76,-17.39 10.02,-34.67 13.69,-52.33 0.73,-4.27 1.7,-9.58 -1.91,-12.87 -3.88,-3.78 -10.1,-2.38 -14.01,0.61 -7.73,5.63 -11.33,14.97 -14.12,23.77 -4.14,13.12 -8.1,26.36 -10.3,39.97 -0.51,2.14 -0.96,4.67 -2.88,6.03 -2.43,1.32 -5.33,1.12 -8,1.23 -7.68,-0.02 -15.35,0.47 -23.02,0.41 -2.29,-0.01 -5.26,-0.24 -6.19,-2.75 -0.89,-3.16 0.11,-6.43 0.81,-9.52 4.11,-15.67 7.98,-31.41 11.09,-47.31 0.55,-3.5 1.61,-7.35 -0.22,-10.67 -1.5,-3.12 -5.17,-4.65 -8.5,-3.99 -7.77,0.95 -12.87,7.85 -16.19,14.32 -8.19,16.38 -11.01,34.68 -15.97,52.15 -0.57,1.81 -1.07,4.07 -3.02,4.88 -2.77,1.16 -5.86,0.88 -8.78,1.01 -7.67,-0.06 -15.33,0.7 -22.99,0.43 -2.12,-0.04 -4.63,-0.92 -5.09,-3.25 -0.23,-3.85 0.88,-7.62 1.53,-11.38 4.8,-24.91 9.17,-49.9 14.16,-74.78 0.53,-1.9 0.97,-4.19 2.8,-5.3 2.35,-1.16 5.06,-0.91 7.62,-1.03 8.35,-0.08 16.7,-0.98 25.05,-0.77 1.78,-0.18 3.81,1.2 3.43,3.18 -0.76,6.73 -2.04,13.41 -3.29,20.07 9.03,-11.1 20.1,-22 34.59,-25.08 z"
       id="path2897"
       style="fill:#f89b34" />
    <path
       d="m 543.52,294.55 c 2.59,-1.38 5.68,-0.82 8.51,-0.92 9.33,0.33 18.68,-0.04 28.01,0.28 3.84,-0.17 3.28,4.38 2.83,6.93 -3.88,24.2 -8.53,48.27 -13.31,72.31 -1.12,4.67 -1.96,9.64 -4.76,13.65 -1.75,2.49 -4.96,3.12 -7.81,2.87 -11.71,-0.65 -23.65,-0.99 -35.1,1.96 -10.79,2.51 -21.58,6.66 -32.83,5.59 -8.39,-0.75 -16.44,-4.98 -21.5,-11.76 -4.51,-5.81 -6.59,-13.12 -7.2,-20.36 -1.26,-11.35 0.05,-22.81 2.14,-33.97 1.86,-10.08 3.76,-20.17 6.32,-30.09 0.7,-2.06 0.99,-4.94 3.43,-5.68 3.12,-1.09 6.5,-0.8 9.75,-0.73 7.99,0.34 15.99,-0.02 23.99,0.17 1.89,0.16 4.37,0.22 5.38,2.17 0.46,1.61 -0.12,3.26 -0.42,4.84 -2.7,10.64 -4.48,21.48 -6.31,32.3 -1.32,8.86 -2.78,17.84 -1.99,26.83 0.35,5.09 3.11,10.38 8.04,12.32 5.25,1.97 10.99,0.61 16.04,-1.31 3.01,-14.64 6.05,-29.28 8.96,-43.95 1.79,-8.99 3.78,-17.95 4.83,-27.06 0.35,-2.33 0.69,-5.14 3,-6.39 z"
       id="path2899"
       style="fill:#f89b34" />
  </g>
  <g
     id="#ef4138ff"
     transform="matrix(0.2,0,0,0.2,-4.1643265,-2.8117666)">
    <path
       d="m 357.49,71.77 c 23.29,-2.85 47.16,1.07 68.8,9.93 2.41,1.04 5.41,2.31 5.91,5.23 -0.52,5.41 -2.95,10.38 -4.76,15.44 -2.23,5.37 -3.92,11.06 -7.17,15.93 -2.21,3.09 -6.46,1.07 -9.37,0.2 -12.91,-5.17 -27.06,-8.53 -40.99,-6.18 -14.15,2.16 -27.06,11.4 -33.36,24.28 -4.58,9.37 -6.55,20.46 -3.52,30.61 2.62,8.69 10.04,15.48 18.69,17.96 8.53,2.51 17.71,2.13 26.34,0.33 11.51,-2.52 22.24,-7.58 32.8,-12.66 1.49,-0.93 3.81,-0.82 4.22,1.25 0.37,5.28 -1.5,10.42 -2.64,15.52 -1.9,6.3 -3.47,12.97 -7.29,18.44 -5.27,5.61 -12.99,7.86 -20.04,10.35 -23.17,7.15 -48.32,11.06 -72.16,4.77 -15.18,-3.77 -29.36,-12.78 -37.8,-26.14 -8.22,-12.63 -10.39,-28.33 -8.7,-43.09 2.14,-19.62 11.13,-38.45 25.16,-52.35 17.54,-17.37 41.5,-27.29 65.88,-29.82 z"
       id="path2902"
       style="fill:#ef4138" />
    <path
       d="m 190.96,424.87 c 8.16,-5.72 18.94,-6.95 28.42,-4.27 -0.7,2.52 -1.39,5.04 -2.12,7.56 -5.55,-0.67 -11.54,-1.34 -16.68,1.4 -6.27,3.12 -11.01,10.14 -10.05,17.3 0.48,3.47 4,6.09 7.47,5.53 5.54,-0.74 10.44,-3.65 15.34,-6.12 0.77,2.48 2.21,5 1.83,7.67 -3.82,2.67 -8.3,4.24 -12.71,5.64 -6.32,1.93 -13.7,1.13 -18.87,-3.2 -3.61,-2.94 -5.01,-7.88 -4.65,-12.39 0.69,-7.83 5.67,-14.74 12.02,-19.12 z"
       id="path2904"
       style="fill:#ef4138" />
    <path
       d="m 241.44,419.63 c 4.74,-1.11 9.92,-1.39 14.49,0.55 3.74,1.54 6.41,5.05 7.4,8.91 1.94,8.83 -0.71,18.67 -7.34,24.93 -7.39,7.22 -20.39,9.34 -28.82,2.76 -7.27,-6.34 -6.89,-18 -2.13,-25.74 3.58,-5.86 9.8,-9.81 16.4,-11.41 m 1.83,6.85 c -6.3,2.85 -9.54,9.93 -10.29,16.49 -0.52,3.7 0.18,8.64 4.13,10.19 4.1,1.42 8.45,-0.93 11.05,-4.06 4.14,-4.91 5.99,-11.78 4.92,-18.1 -0.68,-4.42 -6.04,-6.32 -9.81,-4.52 z"
       id="path2906"
       style="fill:#ef4138" />
    <path
       d="m 288.47,419.75 c 5.83,-1.44 12.7,-1.74 17.72,2.07 4.86,3.73 5.83,10.45 5.11,16.17 -0.97,10.4 -8.85,20.03 -19.23,22.14 -7.07,1.56 -15.69,0.14 -20,-6.24 -4.33,-6.68 -3.61,-15.82 0.29,-22.53 3.5,-5.86 9.58,-9.9 16.11,-11.61 m 1.98,6.87 c -7.72,4.02 -11.26,14.01 -9.59,22.26 1.1,4.62 6.88,5.89 10.61,3.58 7.33,-4.05 10.27,-13.42 9.15,-21.35 -0.61,-4.63 -6.34,-6.54 -10.17,-4.49 z"
       id="path2908"
       style="fill:#ef4138" />
    <path
       d="m 457.34,422.41 c 2.32,-3.54 6.98,-3.37 10.71,-3.88 2.66,13.19 4.7,26.5 6.63,39.82 -3.49,0.99 -7.11,1.44 -10.72,1.6 -0.48,-3.26 -0.95,-6.51 -1.4,-9.77 -4.22,-0.04 -8.42,-0.28 -12.63,-0.44 -1.95,3.39 -3.12,7.4 -5.89,10.21 -3.01,-0.21 -5.94,-0.94 -8.85,-1.68 3.19,-6.35 7.29,-12.18 10.86,-18.31 3.62,-5.93 7.1,-11.98 11.29,-17.55 m -3.68,20.19 c 2.66,0.1 5.32,0.17 7.99,0.24 -0.63,-4.05 -1.17,-8.12 -1.58,-12.2 -2.1,4.01 -4.21,8.01 -6.41,11.96 z"
       id="path2910"
       style="fill:#ef4138" />
    <path
       d="m 572.03,419.07 c 3.18,0.38 6.33,0.99 9.42,1.84 -5.7,10.35 -11.86,20.44 -18.05,30.51 -2.65,5.04 -7.48,10.23 -13.73,9.12 -1.56,-3.64 -1.81,-7.65 -2.56,-11.49 -1.54,-9.39 -3.46,-18.73 -4.5,-28.19 3.56,-0.69 7.15,-1.29 10.76,-1.77 1.78,9.25 2.72,18.65 3.7,28.02 5.05,-9.32 9.5,-18.96 14.96,-28.04 z"
       id="path2912"
       style="fill:#ef4138" />
    <path
       d="m 596.99,421.95 c 2.4,-3.12 6.75,-2.82 10.24,-3.5 2.83,13.19 4.79,26.57 6.7,39.92 -3.49,0.9 -7.05,1.48 -10.64,1.57 -0.56,-3.23 -1,-6.47 -1.41,-9.72 -4.24,-0.09 -8.46,-0.32 -12.68,-0.47 -1.74,3.46 -3.52,6.9 -5.39,10.28 -3.18,-0.35 -6.32,-1.01 -9.41,-1.81 3.8,-7.02 8.27,-13.65 12.3,-20.54 3.27,-5.34 6.43,-10.79 10.29,-15.73 m -4.05,20.64 c 2.65,0.1 5.3,0.18 7.96,0.24 -0.58,-4.08 -1.14,-8.17 -1.61,-12.26 -2.03,4.05 -4.13,8.07 -6.35,12.02 z"
       id="path2914"
       style="fill:#ef4138" />
    <path
       d="m 325.46,420.69 c 6.84,-0.24 13.82,-1.13 20.59,0.29 6.25,1.46 9.12,9.06 6.65,14.68 -3.45,8.87 -13.27,13.56 -22.43,13.06 -0.91,3.29 -1.1,6.82 -2.52,9.94 -3.33,1 -7.16,0.78 -10.57,0.06 0,-4.35 1.47,-8.51 2.23,-12.76 1.91,-8.44 3.34,-17.03 6.05,-25.27 m 6.29,21.06 c 3.03,-0.5 6.36,-0.98 8.56,-3.37 2.13,-2.18 3.92,-5.89 1.97,-8.72 -1.66,-2.36 -4.83,-2 -7.35,-2.07 -1,4.73 -2.12,9.44 -3.18,14.16 z"
       id="path2916"
       style="fill:#ef4138" />
    <path
       d="m 404.58,420.69 c 6.28,-0.77 12.71,-0.77 18.98,0.05 4.67,0.61 9.03,4.39 9.06,9.33 0.46,6.68 -4.78,12.03 -10.51,14.55 4.11,3.86 7.84,8.11 11.43,12.46 -3.17,1.35 -6.39,2.56 -9.64,3.69 -3.71,-4.49 -7.21,-9.15 -11.1,-13.48 -1.12,0.11 -2.24,0.23 -3.35,0.36 -0.82,3.89 -1.51,7.83 -2.84,11.59 -3.66,0.01 -7.35,0.08 -10.98,-0.46 2.27,-11.28 4.82,-22.5 7.35,-33.73 0.38,-1.5 0.7,-3.07 1.6,-4.36 m 9.43,6.49 c -0.91,4.42 -1.99,8.81 -2.94,13.23 5.39,-0.17 11.67,-4.25 10.67,-10.31 -1.11,-3.21 -5.02,-2.82 -7.73,-2.92 z"
       id="path2918"
       style="fill:#ef4138" />
    <path
       d="m 364.9,426.01 c 0.37,-1.81 0.96,-3.55 1.63,-5.27 8.21,0.15 16.43,-0.22 24.65,0.04 -0.44,2.36 -0.94,4.71 -1.47,7.06 -4.62,0.43 -9.26,0.3 -13.88,0.04 -0.56,2.6 -1.13,5.19 -1.71,7.79 4.65,-0.14 9.31,-0.29 13.97,-0.04 -0.47,2.4 -0.99,4.8 -1.55,7.18 -4.62,0.15 -9.24,0.03 -13.86,0.01 -0.67,3.03 -1.33,6.06 -2.08,9.08 5.46,-0.19 10.93,-0.55 16.4,-0.28 -0.5,2.38 -1.05,4.75 -1.61,7.12 -6.46,0.26 -12.92,-0.13 -19.37,0.31 -2.65,0.19 -5.3,-0.09 -7.92,-0.46 2.23,-10.86 4.55,-21.71 6.8,-32.58 z"
       id="path2920"
       style="fill:#ef4138" />
    <path
       d="m 483.76,420.78 c 10.74,-0.16 21.49,-0.37 32.24,-0.15 -0.4,2.67 -0.88,5.34 -1.48,7.98 -3.56,0.09 -7.11,0.06 -10.66,0.06 -2.1,10.04 -4.25,20.07 -6.34,30.11 -3.75,0.58 -7.56,0.57 -11.3,0.04 1.86,-10.12 4.21,-20.15 6.34,-30.22 -3.68,0.24 -7.36,0.47 -11.03,0.15 0.69,-2.67 1.42,-5.33 2.23,-7.97 z"
       id="path2922"
       style="fill:#ef4138" />
    <path
       d="m 522.6,428.19 c 0.63,-2.47 0.78,-5.21 2.33,-7.33 3.41,-0.42 6.87,-0.12 10.3,-0.01 -2.01,12.72 -5.19,25.22 -7.75,37.84 -3.72,0.81 -7.55,0.7 -11.31,0.25 1.67,-10.34 4.51,-20.45 6.43,-30.75 z"
       id="path2924"
       style="fill:#ef4138" />
  </g>
</svg>
